<svg width="27" height="19" viewBox="0 0 27 19" fill="none" xmlns="http://www.w3.org/2000/svg">
<path fill-rule="evenodd" clip-rule="evenodd" d="M14.9961 1.68679H17.748C17.9418 1.68679 18.1642 1.79355 18.2529 1.90386C18.497 2.20812 18.497 3.36601 18.5526 3.80506C18.5941 4.13289 18.8285 6.20535 18.8285 6.53407C18.8285 6.88949 18.5725 7.13014 18.2626 7.13014H15.125C14.8814 7.13014 14.6991 7.00381 14.6073 6.84857C14.5075 6.68087 14.4603 6.42954 14.4837 6.14663C14.538 5.49051 14.4577 2.29576 14.5292 2.04487C14.5936 1.81846 14.7463 1.68679 14.997 1.68679H14.9961ZM1.44149 15.944C1.44149 16.5289 1.83253 17.1125 2.20592 17.5062C2.33877 17.6459 2.60933 17.8523 2.77042 17.9484C2.91475 18.0347 3.0423 18.1201 3.20472 18.1846C3.58164 18.3336 3.92811 18.4159 4.26266 18.4323H4.51247C4.99621 18.4083 5.46272 18.2424 5.9672 17.9386C6.08107 17.8701 6.26512 17.7326 6.36089 17.6356C6.77666 17.2139 7.1421 16.8096 7.26568 16.1624C7.28599 16.0552 7.34248 15.9182 7.22861 15.9182H5.37666C5.28486 15.9182 5.30472 15.98 5.29104 16.065C5.11758 17.1392 3.7679 17.1517 3.48234 16.2722C3.4051 16.0338 3.46336 15.9182 3.34508 15.9182C3.0754 15.9182 1.5836 15.8888 1.44193 15.944H1.44149ZM23.3551 16.2549C23.0377 16.2549 22.7994 16.2162 22.5796 15.9738C22.0116 15.3474 22.452 14.259 23.2266 14.259C23.5603 14.259 23.7399 14.3017 23.9924 14.5761C24.5737 15.2073 24.1045 16.2549 23.3551 16.2549ZM20.2686 15.1402C20.2686 15.8888 20.3896 16.5271 20.8124 17.1067L21.1491 17.5191C21.252 17.6321 21.4303 17.7691 21.5592 17.8572C21.8791 18.0756 22.2053 18.2464 22.5893 18.3225C23.2747 18.4581 24.0551 18.4563 24.6747 18.104C25.0265 17.9043 25.0861 17.8443 25.3531 17.6214C25.6051 17.411 25.9851 16.814 26.11 16.4662C26.2844 15.98 26.381 15.343 26.3025 14.8137C26.2433 14.4169 26.1908 14.2456 26.0518 13.8995C26.0143 13.8061 25.9692 13.7416 25.918 13.6455C25.8682 13.553 25.8227 13.493 25.7671 13.4084C24.8098 11.953 22.4953 11.5838 21.1355 13.0072C20.8397 13.3168 20.7157 13.5401 20.5423 13.9129C20.3865 14.2478 20.2682 14.6637 20.2682 15.1397L20.2686 15.1402ZM12.7187 0.00177931H18.0336C18.2896 0.00222414 18.6148 0.0898552 18.8064 0.153466C19.0796 0.244655 19.4698 0.522228 19.6295 0.72329L22.0257 4.32195C22.3465 4.90022 22.4004 5.08082 22.6431 5.56613C22.9715 6.22225 23.1953 6.90951 23.3401 7.63769L23.461 8.21552C23.5241 8.46329 23.6358 8.30582 23.8631 8.51C24.0228 8.65368 23.9721 9.12653 23.9721 9.41122C23.9721 10.2084 22.8404 9.57091 22.8404 10.3445C23.0192 10.3445 23.1445 10.2929 23.3551 10.2929C23.7819 10.2929 24.1416 10.3792 24.4642 10.497C24.804 10.6207 25.0124 10.7155 25.2944 10.9045C25.7706 11.2239 26.2994 11.7937 26.3126 12.3925C25.8951 12.3925 25.7953 12.4005 25.4392 12.1838C25.3474 12.1278 25.2856 12.0815 25.181 12.0295C25.0848 11.981 25.0013 11.945 24.8985 11.8991C23.8816 11.4468 22.7142 11.4837 21.7167 11.9859C20.6839 12.5059 19.9972 13.4703 19.7275 14.5952C19.6993 14.7122 19.6662 14.8617 19.6525 14.9862C19.6379 15.1201 19.6264 15.2549 19.5991 15.3732H0.514627V11.8996C0.514627 11.7301 0.470932 11.5998 0.364564 11.5322C0.304539 11.4939 0.0798863 11.4254 0 11.4067V10.1105C0.171689 10.0963 0.330579 10.0202 0.488587 10.0068V8.81426H8.12766C8.12766 9.13676 8.19784 9.38409 8.37703 9.62563C8.44897 9.7226 8.50017 9.8 8.58403 9.88363C8.77426 10.074 8.86165 10.1421 9.01833 10.3792C9.21076 10.6701 9.32817 11.0139 9.38863 11.3796C9.43233 11.6438 9.47646 11.9272 9.50912 12.1909C9.57753 12.7408 9.50471 13.3506 9.79866 13.7398C9.90811 13.8849 10.1654 14.0241 10.417 14.0241H12.7319C12.9562 14.0241 13.1406 13.9752 13.2364 13.8324C13.3194 13.7087 13.375 13.4943 13.375 13.2981V2.28108C13.375 1.89897 13.1623 1.68501 12.7836 1.68501H8.69393C8.02836 1.68501 8.1537 2.30109 8.1537 2.95499V7.90637C8.1537 8.02514 8.20049 8.26935 8.07646 8.26935H0.489028V4.12177C0.489028 2.99858 0.984235 2.00128 1.82238 1.31802L2.37452 0.941256C3.579 0.221969 4.54822 0.0760655 5.916 0.0778449C6.15169 0.0782897 6.28542 0.0507104 6.50743 0.0516C7.36764 0.0560483 8.14267 0.0258 9.00244 0.0258C9.83396 0.0258 10.6655 0.0258 11.4975 0.0258C11.9348 0.0258 12.2826 0.000444828 12.7183 0L12.7187 0.00177931ZM19.7284 1.73839C19.9182 1.73839 20.0466 1.97993 20.1759 2.16853C20.4359 2.54664 20.9969 3.39626 21.203 3.77748C21.3098 3.97498 21.4109 4.14135 21.5208 4.33885C21.6289 4.53368 21.7136 4.72185 21.8266 4.91223C21.9237 5.07593 22.0455 5.32859 22.1201 5.49763C22.2172 5.71782 22.3774 5.98026 22.3774 6.22314C22.23 6.22314 20.7872 6.52874 20.5259 6.56299C20.1759 6.60881 20.0223 6.42064 19.9566 6.09636C19.7037 4.84595 19.5104 3.62268 19.2862 2.36426C19.2561 2.19656 19.2906 2.07156 19.3678 1.94612C19.4269 1.85004 19.5783 1.73839 19.728 1.73839H19.7284Z" fill="#4169E1"/>
</svg>
