<svg width="27" height="17" viewBox="0 0 27 17" fill="none" xmlns="http://www.w3.org/2000/svg">
<path fill-rule="evenodd" clip-rule="evenodd" d="M9.7351 10.2765L10.021 11.4723L8.77066 11.4349L8.65527 10.8021L9.73582 10.2765H9.7351ZM20.497 11.7405C21.2699 12.3021 21.5224 13.7353 22.8425 13.4282C24.0943 12.1382 20.8301 10.805 22.0297 10.5698C23.4847 10.2836 24.7909 11.5866 24.6814 12.9565C24.5754 14.2775 23.2205 15.4503 21.6378 14.8822C19.9891 14.2897 19.9259 12.2547 20.497 11.7405ZM6.80767 13.0845C6.22059 15.364 2.76342 15.3101 2.01015 13.132C1.16691 10.6935 4.02249 8.69876 6.02829 10.3059C5.86138 10.5569 5.73438 10.5806 5.42814 10.7539C4.77647 11.1221 3.78736 11.56 3.664 12.0785C3.32873 13.4915 5.86501 13.0644 6.80767 13.0845ZM18.3715 12.1792L18.5791 12.1303C18.5798 12.1137 18.5616 12.1842 18.5536 12.2115C18.3309 15.2137 20.9535 17.6522 24.0609 16.2866C26.5972 15.172 27.2401 11.7887 24.7822 9.67242L25.3258 9.49049C25.0094 8.64052 24.2423 8.2069 23.2118 7.96385C21.701 7.6079 21.3076 7.95954 20.0203 8.11486L18.8505 5.61745C19.4978 5.57287 19.7728 5.45494 20.1415 5.1824C20.2075 4.35185 19.8519 3.17757 19.5798 2.48077C19.1647 1.41795 18.6182 1.58694 17.3229 1.55386C17.1683 1.00016 17.0275 0.411939 16.7844 0.0286623C15.4927 -0.238121 12.4862 1.42011 12.9934 2.40239C14.0508 3.37532 14.5645 2.08886 15.7953 1.75233L16.3091 3.64498C14.9013 3.67662 13.5196 3.8039 12.3193 4.30007C10.6669 4.98393 11.1582 5.69008 10.1879 6.63569C9.56674 6.78454 7.66471 6.79748 7.02901 6.53214C6.13786 6.15965 6.37081 5.04865 5.39839 4.75957C4.75325 4.5683 2.99346 4.63229 2.29245 4.72721C1.3418 4.85521 0.415819 5.11409 0 5.76271C0.267779 6.74858 1.04934 6.6062 2.14949 6.64935C4.45645 6.73852 7.44483 7.03694 8.83234 8.82604L7.79824 9.36105C6.44991 8.14434 4.38388 7.18076 2.1161 8.52187C-1.57474 10.7043 -0.293178 16.9899 4.97676 16.5966C8.12407 16.3614 8.51594 13.1938 8.97385 13.0708C9.79605 13.0708 10.1988 12.9522 10.8947 13.2995C12.3265 14.0136 14.6611 13.9072 15.918 13.3448C16.8055 12.9479 16.2663 12.0656 16.664 10.0039C16.8933 8.81454 17.3156 8.00484 17.6197 7.00602L18.804 9.12447C18.6531 9.39269 18.5166 9.48258 18.3258 9.78819C17.8642 10.5296 17.3214 11.724 17.7402 12.5725C18.1451 12.6804 18.185 12.5732 18.3708 12.1806L18.3715 12.1792Z" fill="#4169E1"/>
</svg>
