<?xml version="1.0" encoding="UTF-8"?>
<!DOCTYPE svg PUBLIC "-//W3C//DTD SVG 1.0//EN" "http://www.w3.org/TR/2001/REC-SVG-20010904/DTD/svg10.dtd">
<!-- Creator: CorelDRAW -->
<svg xmlns="http://www.w3.org/2000/svg" xml:space="preserve" width="26.5768mm" height="3.3406mm" version="1.0" style="shape-rendering:geometricPrecision; text-rendering:geometricPrecision; image-rendering:optimizeQuality; fill-rule:evenodd; clip-rule:evenodd"
viewBox="0 0 376.15 47.28"
 xmlns:xlink="http://www.w3.org/1999/xlink"
 xmlns:xodm="http://www.corel.com/coreldraw/odm/2003">
 <defs>
  <style type="text/css">
   <![CDATA[
    .fil0 {fill:#010E47}
   ]]>
  </style>
 </defs>
 <g id="Layer_x0020_1">
  <metadata id="CorelCorpID_0Corel-Layer"/>
  <g id="_2109329767104">
   <path class="fil0" d="M0 -0l17.52 0 0 26.39c15.14,-4.75 28.24,-14.09 37.68,-26.39l21 0c-5.6,9.82 -12.93,18.53 -21.57,25.72l21.56 21.56 -24.77 0 -11.51 -11.51c-6.97,3.85 -14.48,6.83 -22.39,8.81l0 0 -0.02 0c-5.53,1.38 -11.25,2.28 -17.12,2.63l-0.37 0.06 0 -0.03 0 -17.56 0 -29.69zm299.95 0l0 11.46c0,19.7 16.12,35.82 35.82,35.82l40.38 0 0 -47.28 -17.51 0 0 29.77 -22.87 0c-10.04,0 -18.31,-8.28 -18.31,-18.31l0 -11.46 -17.51 0zm-13.46 0c-5.6,9.82 -12.93,18.53 -21.57,25.72l21.56 21.56 -24.77 0 -11.5 -11.51c-6.97,3.85 -14.48,6.83 -22.39,8.81l0 0 -0.02 0c-5.53,1.38 -11.25,2.28 -17.13,2.63l-0.37 0.06 0 -47.28 17.52 0 0 26.39c15.14,-4.75 28.24,-14.09 37.68,-26.39l21 0zm-107.18 0l17.52 0 0 47.28 -17.52 0 0 -47.28zm-51.56 36.75c6.46,3.38 13.35,6.03 20.58,7.84l0 0 0.01 0c5.54,1.39 11.27,2.28 17.15,2.63l0.36 0.06 0 -47.28 -17.52 0 0 26.39c-7.41,-2.33 -14.34,-5.75 -20.58,-10.09 -6.25,4.34 -13.17,7.76 -20.58,10.09l0 -26.39 -17.52 0 0 29.69 0 17.56 0 0.03 0.36 -0.06c5.88,-0.35 11.61,-1.25 17.14,-2.63l0.02 -0 0 -0c7.23,-1.81 14.13,-4.46 20.58,-7.84z"/>
  </g>
 </g>
</svg>
