<?xml version="1.0" encoding="UTF-8"?>
<!DOCTYPE svg PUBLIC "-//W3C//DTD SVG 1.0//EN" "http://www.w3.org/TR/2001/REC-SVG-20010904/DTD/svg10.dtd">
<!-- Creator: CorelDRAW -->
<svg xmlns="http://www.w3.org/2000/svg" xml:space="preserve" width="600px" height="112px" version="1.0" style="shape-rendering:geometricPrecision; text-rendering:geometricPrecision; image-rendering:optimizeQuality; fill-rule:evenodd; clip-rule:evenodd"
viewBox="0 0 546.41 101.9"
 xmlns:xlink="http://www.w3.org/1999/xlink"
 xmlns:xodm="http://www.corel.com/coreldraw/odm/2003">
 <defs>
  <style type="text/css">
   <![CDATA[
    .fil0 {fill:#010E47}
    .fil1 {fill:royalblue}
    .fil3 {fill:#010E47;fill-rule:nonzero}
    .fil2 {fill:royalblue;fill-rule:nonzero}
   ]]>
  </style>
 </defs>
 <g id="Layer_x0020_1">
  <metadata id="CorelCorpID_0Corel-Layer"/>
  <g id="_2109786448240">
   <g>
    <path class="fil0" d="M48.94 0c27.02,0 48.93,21.91 48.93,48.94 0,22.95 -15.8,42.21 -37.12,47.49 -0.37,0.09 -0.65,0.18 -1.04,0.18 -1.52,0 -2.75,-1.23 -2.75,-2.75 0,-1.29 0.88,-2.38 2.08,-2.67 0.04,-0.01 0.06,-0.02 0.11,-0.03 15.73,-3.79 28.13,-16.15 31.98,-31.86l-0.02 -0.01c-4.98,-0.6 -14.33,2.86 -19.74,5.12l2.33 -4.04c1.28,-2.16 2.29,-4.53 2.98,-7.04 0.5,-1.85 0.83,-3.77 0.96,-5.72 8.9,0.92 14.71,2.12 14.71,2.12l0.01 0.02c0.01,-0.27 0.01,-0.54 0.01,-0.81 0,-16.83 -9.57,-31.43 -23.57,-38.64l0.18 0.14c0,0 -4.62,-2.4 -8.97,-0.49 -4.34,1.92 -4.95,5.92 -11.07,5.92 -6.12,0 -6.73,-4 -11.08,-5.92 -4.34,-1.91 -8.97,0.49 -8.97,0.49l0.26 -0.18c-14.04,7.2 -23.64,21.82 -23.64,38.68 0,0.26 0,0.53 0,0.8l0.01 -0.01c0,0 5.8,-1.2 14.72,-2.12 0.13,1.95 0.45,3.86 0.96,5.72 0.69,2.51 1.7,4.88 2.98,7.04l2.34 4.05c-5.42,-2.26 -14.78,-5.73 -19.77,-5.13l0 0c3.84,15.7 16.2,28.04 31.91,31.85 0.12,0.03 0.21,0.05 0.33,0.09 1.12,0.35 1.93,1.39 1.93,2.63 0,1.52 -1.23,2.75 -2.75,2.75 -0.39,0 -0.69,-0.09 -1.06,-0.18 -21.31,-5.29 -37.11,-24.55 -37.11,-47.49 0,-27.03 21.91,-48.94 48.94,-48.94z"/>
    <path class="fil1" d="M48.94 19.65c-14.41,0 -26.1,11.68 -26.1,26.1 0,4.84 1.33,9.38 3.63,13.27l22.47 38.85 22.47 -38.85c2.3,-3.89 3.62,-8.43 3.62,-13.27 0,-14.42 -11.68,-26.1 -26.09,-26.1zm0 16.59c5.25,0 9.5,4.26 9.5,9.51 0,5.25 -4.25,9.5 -9.5,9.5 -5.25,0 -9.51,-4.25 -9.51,-9.5 0,-5.25 4.26,-9.51 9.51,-9.51z"/>
   </g>
   <path class="fil0" d="M280.54 27.98c-6.39,11.21 -15.32,20.79 -26,27.96l0 0 0 8.18 0 5.74 -15.53 0 0 -5.74 0 -8.18c-10.68,-7.17 -19.61,-16.75 -26.01,-27.96l18.62 0c4.27,5.57 9.38,10.45 15.15,14.45 5.77,-4 10.89,-8.88 15.16,-14.45l18.61 0zm170.88 0l15.52 0 0 41.91 -15.52 0 0 -41.91zm-91.4 0c-4.97,8.71 -11.47,16.43 -19.12,22.8l19.1 19.11 -21.95 0 -10.2 -10.2c-6.18,3.41 -12.84,6.06 -19.85,7.81l0 0.01 -0.04 0.01c-4.89,1.22 -9.95,2 -15.14,2.32l-0.35 0.05 0 -0.03 0 -15.56 0 -26.32 15.53 0 0 23.39c13.42,-4.21 25.03,-12.49 33.4,-23.39l18.62 0zm45.7 32.58c5.72,2.99 11.83,5.34 18.24,6.94l0 0.01 0.03 0c4.9,1.23 9.96,2.02 15.16,2.33l0.34 0.05 0 -0.03 0 -15.56 0 -26.32 -15.53 0 0 23.39c-6.57,-2.06 -12.71,-5.1 -18.24,-8.94 -5.54,3.84 -11.68,6.88 -18.25,8.94l0 -23.39 -15.53 0 0 41.91 0.33 -0.05c5.2,-0.32 10.27,-1.1 15.17,-2.33l0.03 0 0 -0.01c6.41,-1.6 12.52,-3.95 18.25,-6.94zm140.69 -32.58c-4.96,8.71 -11.46,16.43 -19.11,22.8l19.1 19.11 -21.95 0 -10.2 -10.2c-6.18,3.41 -12.84,6.06 -19.85,7.81l0 0.01 -0.04 0.01c-4.89,1.22 -9.95,2 -15.14,2.32l-0.35 0.05 0 -0.03 0 -15.56 0 -26.32 15.53 0 0 23.39c13.42,-4.21 25.04,-12.49 33.4,-23.39l18.61 0zm-379.1 9.34c5.72,-3 11.83,-5.35 18.24,-6.95l0 0 0.03 -0.01c4.9,-1.23 9.96,-2.01 15.16,-2.33l0.33 -0.05 0 0.03 0 15.56 0 26.32 -15.52 0 0 -23.39c-6.57,2.06 -12.71,5.1 -18.24,8.94 -5.54,-3.84 -11.68,-6.88 -18.25,-8.94l0 23.39 -15.53 0 0 -26.32 0 -15.56 0 -0.03 0.33 0.05c5.2,0.32 10.27,1.11 15.17,2.33l0.03 0.01 0 0c6.41,1.6 12.52,3.95 18.25,6.95z"/>
   <g>
    <path class="fil2" d="M312.79 84.6c0,-0.35 0.33,-0.62 0.71,-0.62 0.39,0 0.71,0.28 0.71,0.62l0 14.71c0,0.35 -0.32,0.62 -0.71,0.62 -0.4,0 -0.71,-0.28 -0.71,-0.62l0 -14.71z"/>
    <path class="fil2" d="M209.07 84.6c0,-0.35 0.32,-0.62 0.71,-0.62 0.38,0 0.71,0.28 0.71,0.62l0 14.71c0,0.35 -0.33,0.62 -0.71,0.62 -0.4,0 -0.71,-0.28 -0.71,-0.62l0 -14.71z"/>
    <path class="fil3" d="M142.96 97.93c-0.12,0 -0.2,-0.06 -0.24,-0.16l-0.79 -2.5c-0.02,-0.04 -0.04,-0.06 -0.08,-0.06l-5.93 0c-0.04,0 -0.07,0.02 -0.08,0.06l-0.8 2.5c-0.04,0.1 -0.12,0.16 -0.24,0.16l-1.07 0c-0.14,0 -0.2,-0.08 -0.16,-0.22l4.39 -13.51c0.04,-0.11 0.12,-0.16 0.24,-0.16l1.35 0c0.11,0 0.19,0.05 0.23,0.16l4.41 13.51 0.02 0.08c0,0.09 -0.06,0.14 -0.18,0.14l-1.07 0zm-6.73 -3.97c-0.01,0.03 -0.01,0.05 0.01,0.07 0.02,0.02 0.05,0.03 0.07,0.03l5.12 0c0.03,0 0.05,-0.01 0.07,-0.03 0.02,-0.02 0.02,-0.04 0.01,-0.07l-2.58 -8.1c-0.01,-0.02 -0.03,-0.03 -0.06,-0.03 -0.03,0 -0.05,0.01 -0.06,0.03l-2.58 8.1zm97.81 3.97c-0.12,0 -0.19,-0.06 -0.23,-0.16l-0.8 -2.5c-0.01,-0.04 -0.04,-0.06 -0.08,-0.06l-5.93 0c-0.04,0 -0.07,0.02 -0.08,0.06l-0.79 2.5c-0.04,0.1 -0.12,0.16 -0.24,0.16l-1.07 0c-0.15,0 -0.2,-0.08 -0.16,-0.22l4.38 -13.51c0.04,-0.11 0.12,-0.16 0.24,-0.16l1.35 0c0.12,0 0.2,0.05 0.24,0.16l4.4 13.51 0.02 0.08c0,0.09 -0.06,0.14 -0.17,0.14l-1.08 0zm-6.72 -3.97c-0.02,0.03 -0.01,0.05 0.01,0.07 0.02,0.02 0.04,0.03 0.07,0.03l5.12 0c0.02,0 0.05,-0.01 0.07,-0.03 0.01,-0.02 0.02,-0.04 0.01,-0.07l-2.58 -8.1c-0.02,-0.02 -0.04,-0.03 -0.06,-0.03 -0.03,0 -0.05,0.01 -0.06,0.03l-2.58 8.1zm110.49 3.97c-0.12,0 -0.2,-0.06 -0.24,-0.16l-0.8 -2.5c-0.01,-0.04 -0.04,-0.06 -0.08,-0.06l-5.93 0c-0.04,0 -0.06,0.02 -0.08,0.06l-0.79 2.5c-0.04,0.1 -0.12,0.16 -0.24,0.16l-1.07 0c-0.15,0 -0.2,-0.08 -0.16,-0.22l4.39 -13.51c0.04,-0.11 0.11,-0.16 0.23,-0.16l1.35 0c0.12,0 0.2,0.05 0.24,0.16l4.41 13.51 0.02 0.08c0,0.09 -0.06,0.14 -0.18,0.14l-1.07 0zm-6.73 -3.97c-0.01,0.03 -0.01,0.05 0.01,0.07 0.02,0.02 0.04,0.03 0.07,0.03l5.12 0c0.02,0 0.05,-0.01 0.07,-0.03 0.02,-0.02 0.02,-0.04 0.01,-0.07l-2.58 -8.1c-0.02,-0.02 -0.04,-0.03 -0.06,-0.03 -0.03,0 -0.05,0.01 -0.06,0.03l-2.58 8.1zm14.42 -6.21c1.06,0 1.9,0.31 2.53,0.93 0.63,0.62 0.95,1.46 0.95,2.5l0 6.55c0,0.13 -0.07,0.2 -0.2,0.2l-1.01 0c-0.14,0 -0.2,-0.07 -0.2,-0.2l0 -6.27c0,-0.73 -0.23,-1.32 -0.67,-1.79 -0.44,-0.46 -1.01,-0.69 -1.71,-0.69 -0.73,0 -1.32,0.22 -1.77,0.67 -0.45,0.45 -0.67,1.04 -0.67,1.77l0 6.31c0,0.13 -0.07,0.2 -0.2,0.2l-1.01 0c-0.14,0 -0.2,-0.07 -0.2,-0.2l0 -9.64c0,-0.14 0.06,-0.2 0.2,-0.2l1.01 0c0.13,0 0.2,0.06 0.2,0.2l0 0.85c0,0.03 0,0.05 0.03,0.06 0.01,0.01 0.03,0.01 0.04,-0.02 0.59,-0.82 1.48,-1.23 2.68,-1.23zm5.9 14.15c-0.1,0 -0.14,-0.07 -0.14,-0.2l0 -0.8c0,-0.13 0.06,-0.2 0.2,-0.2l0.07 0c0.52,-0.01 0.92,-0.08 1.2,-0.22 0.29,-0.14 0.53,-0.4 0.74,-0.78 0.2,-0.37 0.42,-0.95 0.66,-1.71 0.03,-0.06 0.03,-0.1 0,-0.12l-3.35 -9.76 -0.02 -0.08c0,-0.09 0.06,-0.14 0.18,-0.14l1.05 0c0.12,0 0.2,0.05 0.24,0.16l2.58 8.01c0.01,0.03 0.03,0.04 0.06,0.04 0.02,0 0.04,-0.01 0.06,-0.04l2.54 -8.01c0.04,-0.11 0.12,-0.16 0.23,-0.16l1.04 0c0.14,0 0.19,0.07 0.16,0.22l-3.68 10.69c-0.31,0.89 -0.61,1.54 -0.89,1.97 -0.28,0.42 -0.62,0.71 -1.04,0.88 -0.42,0.16 -1,0.25 -1.76,0.25l-0.13 0zm11.68 -3.97c-0.1,0 -0.18,-0.06 -0.22,-0.16l-2.81 -9.66 -0.02 -0.06c0,-0.11 0.06,-0.16 0.19,-0.16l1.04 0c0.11,0 0.19,0.06 0.21,0.18l2.11 7.81c0.01,0.03 0.03,0.04 0.05,0.04 0.02,0 0.03,-0.01 0.05,-0.04l2.14 -7.81c0.03,-0.12 0.1,-0.18 0.22,-0.18l0.95 0c0.12,0 0.19,0.05 0.22,0.16l2.16 7.81c0.01,0.03 0.03,0.04 0.06,0.04 0.03,0 0.05,-0.01 0.06,-0.04l2.16 -7.79c0.03,-0.12 0.1,-0.18 0.22,-0.18l1.03 0.02c0.07,0 0.12,0.02 0.15,0.06 0.03,0.04 0.04,0.09 0.03,0.16l-2.86 9.64c-0.04,0.1 -0.11,0.16 -0.21,0.16l-1.06 0c-0.1,0 -0.17,-0.06 -0.21,-0.16l-2.17 -7.42c-0.01,-0.03 -0.03,-0.04 -0.05,-0.04 -0.02,0 -0.03,0.01 -0.05,0.04l-2.1 7.42c-0.04,0.1 -0.11,0.16 -0.22,0.16l-1.07 0zm16.39 -10.18c1.06,0 1.9,0.31 2.53,0.93 0.63,0.62 0.94,1.46 0.94,2.5l0 6.55c0,0.13 -0.07,0.2 -0.2,0.2l-1.01 0c-0.13,0 -0.2,-0.07 -0.2,-0.2l0 -6.27c0,-0.73 -0.22,-1.32 -0.66,-1.79 -0.45,-0.46 -1.02,-0.69 -1.72,-0.69 -0.73,0 -1.31,0.22 -1.76,0.67 -0.45,0.45 -0.68,1.04 -0.68,1.77l0 6.31c0,0.13 -0.06,0.2 -0.2,0.2l-1.01 0c-0.13,0 -0.2,-0.07 -0.2,-0.2l0 -13.49c0,-0.13 0.07,-0.2 0.2,-0.2l1.01 0c0.14,0 0.2,0.07 0.2,0.2l0 4.7c0,0.03 0.01,0.05 0.03,0.06 0.02,0.01 0.04,0.01 0.05,-0.02 0.58,-0.82 1.48,-1.23 2.68,-1.23zm14.09 3.47c0.05,0.37 0.07,0.83 0.07,1.39l0 0.64c0,0.13 -0.06,0.19 -0.19,0.19l-6.41 0c-0.05,0 -0.08,0.03 -0.08,0.08 0.03,0.73 0.07,1.2 0.12,1.41 0.14,0.6 0.45,1.07 0.93,1.41 0.48,0.34 1.08,0.52 1.83,0.52 0.55,0 1.04,-0.13 1.46,-0.38 0.43,-0.25 0.76,-0.61 1,-1.07 0.08,-0.12 0.17,-0.15 0.27,-0.08l0.78 0.46c0.1,0.06 0.13,0.15 0.08,0.27 -0.33,0.64 -0.83,1.14 -1.49,1.5 -0.66,0.36 -1.42,0.55 -2.28,0.55 -0.94,-0.02 -1.73,-0.24 -2.36,-0.68 -0.64,-0.43 -1.1,-1.04 -1.37,-1.82 -0.24,-0.64 -0.36,-1.55 -0.36,-2.74 0,-0.56 0.01,-1.01 0.03,-1.36 0.02,-0.35 0.07,-0.67 0.15,-0.94 0.22,-0.86 0.68,-1.55 1.36,-2.07 0.68,-0.51 1.5,-0.77 2.47,-0.77 1.2,0 2.13,0.3 2.78,0.91 0.64,0.61 1.05,1.47 1.21,2.58zm-3.99 -2.26c-0.65,0 -1.19,0.17 -1.62,0.51 -0.43,0.33 -0.71,0.79 -0.84,1.36 -0.08,0.27 -0.13,0.72 -0.16,1.34 0,0.06 0.03,0.08 0.08,0.08l5.14 0c0.05,0 0.08,-0.02 0.08,-0.08 -0.03,-0.59 -0.07,-1.01 -0.12,-1.27 -0.15,-0.59 -0.44,-1.06 -0.89,-1.41 -0.44,-0.35 -1,-0.53 -1.67,-0.53zm10.91 -1.17c0.44,0 0.81,0.09 1.13,0.26 0.11,0.05 0.15,0.14 0.12,0.26l-0.22 0.97c-0.04,0.13 -0.12,0.17 -0.26,0.12 -0.22,-0.1 -0.48,-0.14 -0.77,-0.14l-0.26 0.02c-0.69,0.02 -1.26,0.28 -1.71,0.76 -0.44,0.48 -0.67,1.1 -0.67,1.84l0 5.85c0,0.13 -0.07,0.2 -0.2,0.2l-1.01 0c-0.13,0 -0.2,-0.07 -0.2,-0.2l0 -9.64c0,-0.14 0.07,-0.2 0.2,-0.2l1.01 0c0.13,0 0.2,0.06 0.2,0.2l0 1.21c0,0.04 0.01,0.06 0.03,0.07 0.02,0 0.04,-0.01 0.05,-0.03 0.28,-0.49 0.63,-0.87 1.06,-1.14 0.43,-0.27 0.93,-0.41 1.5,-0.41zm10.77 3.43c0.06,0.37 0.08,0.83 0.08,1.39l0 0.64c0,0.13 -0.06,0.19 -0.2,0.19l-6.4 0c-0.06,0 -0.08,0.03 -0.08,0.08 0.02,0.73 0.06,1.2 0.12,1.41 0.14,0.6 0.45,1.07 0.93,1.41 0.47,0.34 1.08,0.52 1.82,0.52 0.56,0 1.05,-0.13 1.47,-0.38 0.42,-0.25 0.75,-0.61 0.99,-1.07 0.08,-0.12 0.18,-0.15 0.28,-0.08l0.77 0.46c0.11,0.06 0.14,0.15 0.08,0.27 -0.33,0.64 -0.82,1.14 -1.48,1.5 -0.67,0.36 -1.43,0.55 -2.29,0.55 -0.93,-0.02 -1.72,-0.24 -2.36,-0.68 -0.63,-0.43 -1.09,-1.04 -1.37,-1.82 -0.23,-0.64 -0.35,-1.55 -0.35,-2.74 0,-0.56 0.01,-1.01 0.03,-1.36 0.02,-0.35 0.07,-0.67 0.15,-0.94 0.22,-0.86 0.67,-1.55 1.35,-2.07 0.69,-0.51 1.51,-0.77 2.48,-0.77 1.2,0 2.12,0.3 2.77,0.91 0.65,0.61 1.05,1.47 1.21,2.58zm-3.98 -2.26c-0.65,0 -1.19,0.17 -1.62,0.51 -0.43,0.33 -0.71,0.79 -0.84,1.36 -0.08,0.27 -0.14,0.72 -0.16,1.34 0,0.06 0.02,0.08 0.08,0.08l5.13 0c0.06,0 0.08,-0.02 0.08,-0.08 -0.02,-0.59 -0.06,-1.01 -0.12,-1.27 -0.14,-0.59 -0.44,-1.06 -0.88,-1.41 -0.44,-0.35 -1,-0.53 -1.67,-0.53zm-256.61 -1.21c1.05,0 1.9,0.31 2.53,0.93 0.62,0.62 0.94,1.46 0.94,2.5l0 6.55c0,0.13 -0.07,0.2 -0.2,0.2l-1.01 0c-0.13,0 -0.2,-0.07 -0.2,-0.2l0 -6.27c0,-0.73 -0.22,-1.32 -0.67,-1.79 -0.44,-0.46 -1.01,-0.69 -1.71,-0.69 -0.73,0 -1.32,0.22 -1.77,0.67 -0.45,0.45 -0.67,1.04 -0.67,1.77l0 6.31c0,0.13 -0.07,0.2 -0.2,0.2l-1.01 0c-0.13,0 -0.2,-0.07 -0.2,-0.2l0 -9.64c0,-0.14 0.07,-0.2 0.2,-0.2l1.01 0c0.13,0 0.2,0.06 0.2,0.2l0 0.85c0,0.03 0.01,0.05 0.03,0.06 0.02,0.01 0.03,0.01 0.05,-0.02 0.58,-0.82 1.47,-1.23 2.68,-1.23zm5.89 14.15c-0.09,0 -0.14,-0.07 -0.14,-0.2l0 -0.8c0,-0.13 0.07,-0.2 0.2,-0.2l0.08 0c0.51,-0.01 0.91,-0.08 1.2,-0.22 0.28,-0.14 0.53,-0.4 0.73,-0.78 0.21,-0.37 0.43,-0.95 0.67,-1.71 0.02,-0.06 0.02,-0.1 0,-0.12l-3.36 -9.76 -0.02 -0.08c0,-0.09 0.06,-0.14 0.18,-0.14l1.05 0c0.12,0 0.2,0.05 0.24,0.16l2.58 8.01c0.01,0.03 0.03,0.04 0.06,0.04 0.03,0 0.05,-0.01 0.06,-0.04l2.54 -8.01c0.04,-0.11 0.12,-0.16 0.24,-0.16l1.03 0c0.14,0 0.2,0.07 0.16,0.22l-3.67 10.69c-0.32,0.89 -0.62,1.54 -0.9,1.97 -0.27,0.42 -0.62,0.71 -1.04,0.88 -0.41,0.16 -1,0.25 -1.75,0.25l-0.14 0zm13.09 -3.81c-0.95,0 -1.77,-0.25 -2.46,-0.74 -0.68,-0.49 -1.16,-1.16 -1.43,-2.02 -0.18,-0.61 -0.27,-1.42 -0.27,-2.44 0,-1.02 0.09,-1.83 0.27,-2.42 0.26,-0.85 0.72,-1.52 1.41,-2.01 0.69,-0.49 1.52,-0.73 2.5,-0.73 0.94,0 1.75,0.24 2.43,0.73 0.68,0.49 1.15,1.16 1.4,1.99 0.19,0.57 0.28,1.38 0.28,2.44 0,1.07 -0.09,1.88 -0.28,2.44 -0.25,0.86 -0.72,1.53 -1.4,2.02 -0.68,0.49 -1.49,0.74 -2.45,0.74zm0 -1.23c0.64,0 1.18,-0.18 1.63,-0.53 0.45,-0.35 0.75,-0.82 0.91,-1.42 0.12,-0.47 0.18,-1.14 0.18,-2 0,-0.87 -0.05,-1.54 -0.16,-2.01 -0.16,-0.59 -0.46,-1.06 -0.92,-1.41 -0.46,-0.35 -1.01,-0.53 -1.66,-0.53 -0.64,0 -1.19,0.18 -1.64,0.53 -0.45,0.35 -0.76,0.82 -0.92,1.41 -0.1,0.47 -0.16,1.14 -0.16,2.01 0,0.87 0.06,1.54 0.16,2 0.15,0.6 0.45,1.07 0.91,1.42 0.45,0.35 1.01,0.53 1.67,0.53zm11.15 -9.11c1.06,0 1.91,0.31 2.53,0.93 0.63,0.62 0.95,1.46 0.95,2.5l0 6.55c0,0.13 -0.07,0.2 -0.2,0.2l-1.01 0c-0.14,0 -0.2,-0.07 -0.2,-0.2l0 -6.27c0,-0.73 -0.23,-1.32 -0.67,-1.79 -0.44,-0.46 -1.01,-0.69 -1.71,-0.69 -0.73,0 -1.32,0.22 -1.77,0.67 -0.45,0.45 -0.67,1.04 -0.67,1.77l0 6.31c0,0.13 -0.07,0.2 -0.2,0.2l-1.01 0c-0.14,0 -0.2,-0.07 -0.2,-0.2l0 -9.64c0,-0.14 0.06,-0.2 0.2,-0.2l1.01 0c0.13,0 0.2,0.06 0.2,0.2l0 0.85c0,0.03 0.01,0.05 0.03,0.06 0.01,0.01 0.03,0.01 0.05,-0.02 0.58,-0.82 1.47,-1.23 2.67,-1.23zm14.09 3.47c0.05,0.37 0.08,0.83 0.08,1.39l0 0.64c0,0.13 -0.07,0.19 -0.2,0.19l-6.41 0c-0.05,0 -0.08,0.03 -0.08,0.08 0.03,0.73 0.07,1.2 0.12,1.41 0.15,0.6 0.46,1.07 0.94,1.41 0.47,0.34 1.08,0.52 1.82,0.52 0.56,0 1.04,-0.13 1.47,-0.38 0.42,-0.25 0.75,-0.61 0.99,-1.07 0.08,-0.12 0.17,-0.15 0.28,-0.08l0.77 0.46c0.11,0.06 0.13,0.15 0.08,0.27 -0.33,0.64 -0.83,1.14 -1.49,1.5 -0.66,0.36 -1.42,0.55 -2.28,0.55 -0.94,-0.02 -1.72,-0.24 -2.36,-0.68 -0.63,-0.43 -1.09,-1.04 -1.37,-1.82 -0.24,-0.64 -0.36,-1.55 -0.36,-2.74 0,-0.56 0.01,-1.01 0.03,-1.36 0.02,-0.35 0.07,-0.67 0.15,-0.94 0.23,-0.86 0.68,-1.55 1.36,-2.07 0.68,-0.51 1.51,-0.77 2.47,-0.77 1.21,0 2.13,0.3 2.78,0.91 0.65,0.61 1.05,1.47 1.21,2.58zm-3.99 -2.26c-0.65,0 -1.19,0.17 -1.61,0.51 -0.43,0.33 -0.72,0.79 -0.85,1.36 -0.08,0.27 -0.13,0.72 -0.16,1.34 0,0.06 0.03,0.08 0.08,0.08l5.14 0c0.05,0 0.08,-0.02 0.08,-0.08 -0.03,-0.59 -0.07,-1.01 -0.12,-1.27 -0.14,-0.59 -0.44,-1.06 -0.88,-1.41 -0.44,-0.35 -1,-0.53 -1.68,-0.53zm50.85 -1.21c1.06,0 1.9,0.31 2.53,0.93 0.63,0.62 0.94,1.46 0.94,2.5l0 6.55c0,0.13 -0.06,0.2 -0.2,0.2l-1.01 0c-0.13,0 -0.2,-0.07 -0.2,-0.2l0 -6.27c0,-0.73 -0.22,-1.32 -0.66,-1.79 -0.44,-0.46 -1.01,-0.69 -1.72,-0.69 -0.72,0 -1.31,0.22 -1.76,0.67 -0.45,0.45 -0.68,1.04 -0.68,1.77l0 6.31c0,0.13 -0.06,0.2 -0.19,0.2l-1.02 0c-0.13,0 -0.19,-0.07 -0.19,-0.2l0 -9.64c0,-0.14 0.06,-0.2 0.19,-0.2l1.02 0c0.13,0 0.19,0.06 0.19,0.2l0 0.85c0,0.03 0.01,0.05 0.03,0.06 0.02,0.01 0.04,0.01 0.05,-0.02 0.58,-0.82 1.48,-1.23 2.68,-1.23zm5.89 14.15c-0.09,0 -0.14,-0.07 -0.14,-0.2l0 -0.8c0,-0.13 0.07,-0.2 0.2,-0.2l0.08 0c0.52,-0.01 0.92,-0.08 1.2,-0.22 0.29,-0.14 0.53,-0.4 0.74,-0.78 0.2,-0.37 0.42,-0.95 0.66,-1.71 0.03,-0.06 0.03,-0.1 0,-0.12l-3.35 -9.76 -0.02 -0.08c0,-0.09 0.06,-0.14 0.18,-0.14l1.05 0c0.12,0 0.2,0.05 0.24,0.16l2.58 8.01c0.01,0.03 0.03,0.04 0.06,0.04 0.02,0 0.04,-0.01 0.06,-0.04l2.54 -8.01c0.03,-0.11 0.11,-0.16 0.23,-0.16l1.03 0c0.15,0 0.2,0.07 0.16,0.22l-3.67 10.69c-0.31,0.89 -0.61,1.54 -0.89,1.97 -0.28,0.42 -0.63,0.71 -1.04,0.88 -0.42,0.16 -1,0.25 -1.76,0.25l-0.14 0zm14.11 -13.04c0,0.13 -0.07,0.2 -0.2,0.2l-2.24 0c-0.05,0 -0.08,0.03 -0.08,0.08l0 5.85c0,0.64 0.14,1.08 0.43,1.34 0.28,0.26 0.73,0.39 1.34,0.39l0.49 0c0.13,0 0.2,0.06 0.2,0.2l0 0.81c0,0.13 -0.07,0.2 -0.2,0.2 -0.16,0.01 -0.4,0.02 -0.73,0.02 -0.95,0 -1.68,-0.18 -2.16,-0.54 -0.49,-0.36 -0.74,-1.02 -0.74,-1.98l0 -6.29c0,-0.05 -0.03,-0.08 -0.08,-0.08l-1.21 0c-0.13,0 -0.2,-0.07 -0.2,-0.2l0 -0.77c0,-0.14 0.07,-0.2 0.2,-0.2l1.21 0c0.05,0 0.08,-0.03 0.08,-0.08l0 -2.3c0,-0.13 0.07,-0.2 0.2,-0.2l0.97 0c0.13,0 0.2,0.07 0.2,0.2l0 2.3c0,0.05 0.03,0.08 0.08,0.08l2.24 0c0.13,0 0.2,0.06 0.2,0.2l0 0.77zm6.88 -1.11c1.06,0 1.91,0.31 2.53,0.93 0.63,0.62 0.95,1.46 0.95,2.5l0 6.55c0,0.13 -0.07,0.2 -0.2,0.2l-1.01 0c-0.14,0 -0.2,-0.07 -0.2,-0.2l0 -6.27c0,-0.73 -0.22,-1.32 -0.67,-1.79 -0.44,-0.46 -1.01,-0.69 -1.71,-0.69 -0.73,0 -1.32,0.22 -1.77,0.67 -0.45,0.45 -0.67,1.04 -0.67,1.77l0 6.31c0,0.13 -0.07,0.2 -0.2,0.2l-1.01 0c-0.14,0 -0.2,-0.07 -0.2,-0.2l0 -13.49c0,-0.13 0.06,-0.2 0.2,-0.2l1.01 0c0.13,0 0.2,0.07 0.2,0.2l0 4.7c0,0.03 0.01,0.05 0.03,0.06 0.02,0.01 0.03,0.01 0.05,-0.02 0.58,-0.82 1.47,-1.23 2.67,-1.23zm7.48 -1.69c-0.31,0 -0.58,-0.1 -0.79,-0.31 -0.21,-0.22 -0.32,-0.48 -0.32,-0.8 0,-0.33 0.11,-0.6 0.32,-0.8 0.21,-0.21 0.48,-0.31 0.79,-0.31 0.32,0 0.59,0.1 0.8,0.31 0.21,0.2 0.32,0.47 0.32,0.8 0,0.32 -0.11,0.58 -0.32,0.8 -0.21,0.21 -0.48,0.31 -0.8,0.31zm-0.55 11.85c-0.13,0 -0.2,-0.07 -0.2,-0.2l0 -9.64c0,-0.13 0.07,-0.2 0.2,-0.2l1.01 0c0.13,0 0.2,0.07 0.2,0.2l0 9.64c0,0.13 -0.07,0.2 -0.2,0.2l-1.01 0zm8.83 -10.16c1.06,0 1.9,0.31 2.53,0.93 0.62,0.62 0.94,1.46 0.94,2.5l0 6.55c0,0.13 -0.07,0.2 -0.2,0.2l-1.01 0c-0.13,0 -0.2,-0.07 -0.2,-0.2l0 -6.27c0,-0.73 -0.22,-1.32 -0.67,-1.79 -0.44,-0.46 -1.01,-0.69 -1.71,-0.69 -0.73,0 -1.32,0.22 -1.77,0.67 -0.45,0.45 -0.67,1.04 -0.67,1.77l0 6.31c0,0.13 -0.07,0.2 -0.2,0.2l-1.01 0c-0.13,0 -0.2,-0.07 -0.2,-0.2l0 -9.64c0,-0.14 0.07,-0.2 0.2,-0.2l1.01 0c0.13,0 0.2,0.06 0.2,0.2l0 0.85c0,0.03 0.01,0.05 0.03,0.06 0.02,0.01 0.04,0.01 0.05,-0.02 0.58,-0.82 1.47,-1.23 2.68,-1.23zm12.71 0.34c0,-0.14 0.07,-0.2 0.2,-0.2l1.01 0c0.14,0 0.2,0.06 0.2,0.2l0 9.5c0,1.48 -0.42,2.57 -1.28,3.25 -0.85,0.69 -2.02,1.04 -3.52,1.04 -0.3,0 -0.53,-0.01 -0.69,-0.02 -0.13,-0.02 -0.2,-0.09 -0.2,-0.22l0.04 -0.91c0,-0.07 0.02,-0.12 0.06,-0.15 0.04,-0.04 0.08,-0.05 0.14,-0.03l0.53 0.02c1.23,0 2.13,-0.24 2.68,-0.73 0.56,-0.48 0.83,-1.24 0.83,-2.29l0 -0.73c0,-0.03 -0.01,-0.05 -0.03,-0.05 -0.02,-0.01 -0.04,0 -0.07,0.03 -0.6,0.79 -1.47,1.19 -2.59,1.19 -0.86,0 -1.63,-0.23 -2.3,-0.7 -0.66,-0.46 -1.11,-1.11 -1.34,-1.96 -0.15,-0.54 -0.23,-1.35 -0.23,-2.42 0,-0.58 0.01,-1.07 0.05,-1.47 0.03,-0.4 0.1,-0.75 0.21,-1.07 0.23,-0.79 0.66,-1.43 1.28,-1.92 0.63,-0.48 1.37,-0.72 2.25,-0.72 1.17,0 2.07,0.39 2.67,1.17 0.03,0.03 0.05,0.03 0.07,0.02 0.02,-0.01 0.03,-0.03 0.03,-0.06l0 -0.77zm-0.1 6.8c0.04,-0.2 0.07,-0.44 0.08,-0.73 0.02,-0.29 0.02,-0.72 0.02,-1.27 0,-0.68 0,-1.13 -0.02,-1.36 -0.01,-0.23 -0.04,-0.45 -0.09,-0.65 -0.11,-0.55 -0.37,-1.01 -0.79,-1.37 -0.42,-0.37 -0.94,-0.55 -1.58,-0.55 -0.62,0 -1.14,0.18 -1.57,0.54 -0.43,0.35 -0.73,0.82 -0.91,1.38 -0.13,0.43 -0.19,1.09 -0.19,1.99 0,0.96 0.06,1.63 0.19,2 0.14,0.56 0.42,1.02 0.87,1.38 0.44,0.37 0.98,0.55 1.61,0.55 0.65,0 1.18,-0.18 1.6,-0.54 0.42,-0.36 0.68,-0.81 0.78,-1.37z"/>
   </g>
  </g>
 </g>
</svg>
