<?xml version="1.0" encoding="UTF-8"?>
<!DOCTYPE svg PUBLIC "-//W3C//DTD SVG 1.0//EN" "http://www.w3.org/TR/2001/REC-SVG-20010904/DTD/svg10.dtd">
<!-- Creator: CorelDRAW -->
<svg xmlns="http://www.w3.org/2000/svg" xml:space="preserve" width="43.3495mm" height="43.3496mm" version="1.0" style="shape-rendering:geometricPrecision; text-rendering:geometricPrecision; image-rendering:optimizeQuality; fill-rule:evenodd; clip-rule:evenodd"
viewBox="0 0 776.72 776.72"
 xmlns:xlink="http://www.w3.org/1999/xlink"
 xmlns:xodm="http://www.corel.com/coreldraw/odm/2003">
 <defs>
  <style type="text/css">
   <![CDATA[
    .fil0 {fill:#010E47}
    .fil1 {fill:royalblue}
   ]]>
  </style>
 </defs>
 <g id="Layer_x0020_1">
  <metadata id="CorelCorpID_0Corel-Layer"/>
  <g id="_2108203140288">
   <path class="fil0" d="M388.36 0c214.48,0 388.36,173.88 388.36,388.36 0,182.16 -125.43,335 -294.63,376.94 -2.89,0.7 -5.17,1.4 -8.25,1.4 -12.07,0 -21.85,-9.78 -21.85,-21.85 0,-10.23 7.03,-18.83 16.53,-21.19 0.31,-0.08 0.52,-0.14 0.86,-0.22 124.87,-30.09 223.25,-128.15 253.77,-252.85l-0.12 -0.01c-39.55,-4.83 -113.71,22.68 -156.69,40.57l18.52 -32.03c10.16,-17.17 18.16,-35.93 23.61,-55.88 4.02,-14.71 6.61,-29.88 7.63,-45.35 70.68,7.26 116.72,16.81 116.72,16.81l0.13 0.15c0.04,-2.16 0.07,-4.31 0.07,-6.47 0,-133.55 -75.97,-249.36 -187.04,-306.59l1.45 1.09c0,0 -36.7,-19.08 -71.2,-3.88 -34.5,15.21 -39.32,46.95 -87.89,46.95 -48.57,0 -53.39,-31.74 -87.88,-46.95 -34.49,-15.21 -71.2,3.88 -71.2,3.88l2.07 -1.42c-111.41,57.11 -187.66,173.11 -187.66,306.91 0,2.12 0.03,4.24 0.07,6.35l0.02 -0.03c0,0 46.09,-9.56 116.82,-16.82 1.02,15.47 3.62,30.65 7.64,45.36 5.45,19.95 13.46,38.71 23.62,55.88l18.56 32.1c-42.95,-17.89 -117.25,-45.47 -156.85,-40.63l-0.01 0c30.47,124.52 128.6,222.49 253.21,252.73 0.95,0.23 1.73,0.42 2.64,0.7 8.88,2.77 15.33,11.06 15.33,20.86 0,12.07 -9.78,21.85 -21.85,21.85 -3.09,0 -5.49,-0.71 -8.41,-1.44 -169.14,-41.98 -294.49,-194.79 -294.49,-376.9 0,-214.48 173.88,-388.36 388.36,-388.36z"/>
   <path class="fil1" d="M388.36 155.96c-114.36,0 -207.08,92.71 -207.08,207.08 0,38.46 10.49,74.45 28.76,105.31l178.32 308.37 178.32 -308.37c18.27,-30.86 28.76,-66.86 28.76,-105.31 0,-114.36 -92.71,-207.08 -207.08,-207.08zm0 131.63c41.67,0 75.45,33.78 75.45,75.44 0,41.67 -33.78,75.45 -75.45,75.45 -41.66,0 -75.44,-33.78 -75.44,-75.45 0,-41.66 33.78,-75.44 75.44,-75.44z"/>
  </g>
 </g>
</svg>
